<svg id="erlPyEBQCIh1" xmlns="http://www.w3.org/2000/svg" xmlns:xlink="http://www.w3.org/1999/xlink" viewBox="0 0 24 24" shape-rendering="geometricPrecision" text-rendering="geometricPrecision"><ellipse rx="10.721673" ry="10.468384" transform="matrix(1.249731 0 0 1.299226 12 12)" fill="#ff6060" stroke-width="0"/><path d="M7,12h10M8,8.5c0,0,1,.5,2,.5c1.5,0,2.5-1,4-1c1,0,2,.5,2,.5m-8,7c0,0,1,.5,2,.5c1.5,0,2.5-1,4-1c1,0,2,.5,2,.5M21,12c0,4.9706-4.0294,9-9,9s-9-4.0294-9-9s4.02944-9,9-9s9,4.02944,9,9Z" transform="matrix(1.5 0 0 1.5-6.100798-5.899202)" fill="none" stroke="#fff" stroke-width="2" stroke-linecap="round" stroke-linejoin="round"/></svg>
